<?xml version="1.0" standalone="no"?>
<!DOCTYPE svg PUBLIC "-//W3C//DTD SVG 20010904//EN"
 "http://www.w3.org/TR/2001/REC-SVG-20010904/DTD/svg10.dtd">
<svg version="1.0" xmlns="http://www.w3.org/2000/svg"
 width="377.000000pt" height="377.000000pt" viewBox="0 0 377.000000 377.000000"
 preserveAspectRatio="xMidYMid meet">
<metadata>
Created by potrace 1.11, written by Peter Selinger 2001-2013
</metadata>
<g transform="translate(0.000000,377.000000) scale(0.100000,-0.100000)"
fill="#000000" stroke="none">
<path d="M1284 2712 l-31 -3 -1 -167 c-1 -92 3 -201 8 -242 19 -155 19 -156
-4 -213 -18 -46 -21 -65 -15 -118 4 -35 6 -138 4 -229 -2 -145 0 -168 15 -190
17 -24 17 -29 -1 -125 -18 -91 -20 -185 -10 -354 1 -11 55 -12 324 -8 177 3
333 7 347 10 14 3 50 8 80 11 56 5 155 44 228 90 50 31 152 164 187 242 53
119 58 172 51 474 -3 151 -9 300 -12 330 -8 74 -70 229 -103 259 -192 175
-176 164 -289 201 -59 19 -118 35 -132 34 -53 -2 -153 -3 -380 -1 -129 1 -249
1 -266 -1z m146 -79 l0 -43 -37 19 c-21 10 -48 30 -60 43 l-22 24 59 0 60 0 0
-43z m151 3 c-25 -25 -48 -43 -53 -40 -4 3 -17 22 -28 43 l-19 38 72 2 72 1
-44 -44z m154 35 c3 -6 -3 -15 -14 -20 -27 -15 -31 -14 -31 9 0 21 33 29 45
11z m251 -9 c15 -9 15 -11 -9 -26 -24 -16 -27 -16 -69 5 -37 19 -40 23 -23 29
25 9 79 5 101 -8z m-666 -46 c0 -3 -7 -6 -15 -6 -9 0 -15 9 -15 21 0 18 2 19
15 5 8 -8 15 -17 15 -20z m340 19 c0 -9 -12 -20 -26 -25 -38 -15 -40 -13 -14
15 27 29 40 32 40 10z m120 -25 c0 -44 -8 -48 -46 -24 l-25 17 33 23 c18 13
34 23 36 24 1 0 2 -18 2 -40z m85 19 c40 -24 38 -30 -17 -53 l-38 -15 0 38 c0
32 6 51 16 51 2 0 19 -10 39 -21z m190 11 c3 -5 -1 -10 -10 -10 -9 0 -13 5
-10 10 3 6 8 10 10 10 2 0 7 -4 10 -10z m-568 -43 c9 -19 8 -23 -6 -24 -10 -1
-17 7 -17 23 -2 30 10 31 23 1z m712 -81 c23 -43 39 -82 34 -86 -13 -12 -187
-49 -194 -42 -15 16 -51 144 -43 152 18 16 149 69 155 62 3 -4 25 -42 48 -86z
m-194 64 c-28 -12 -37 -12 -30 0 3 6 16 10 28 9 21 0 21 -1 2 -9z m-328 -55
c7 -28 12 -55 10 -62 -2 -11 -108 69 -115 88 -4 9 54 28 77 26 9 -1 20 -23 28
-52z m263 45 c0 -5 -8 -10 -17 -10 -15 0 -16 2 -3 10 19 12 20 12 20 0z m-192
-82 l-23 -40 -12 49 c-19 72 -17 75 22 52 l35 -21 -22 -40z m-330 57 c2 -2
-17 -10 -42 -18 -43 -15 -47 -15 -56 3 -5 10 -10 21 -10 25 0 5 101 -4 108
-10z m125 -42 c13 -21 38 -63 55 -93 l32 -56 -48 -35 -47 -35 -73 20 -73 21
-25 79 c-13 43 -23 80 -22 81 4 3 161 53 170 54 4 1 18 -16 31 -36z m746 -19
c33 -31 34 -32 12 -39 -12 -4 -24 -5 -25 -3 -1 1 -15 25 -29 52 -29 52 -24 50
42 -10z m-308 -34 l26 -75 -36 -10 -36 -11 -55 81 c-62 89 -61 92 24 91 l51
-1 26 -75z m-104 -77 c-8 -7 -127 40 -127 50 0 7 9 27 21 46 l20 33 44 -63
c25 -34 43 -64 42 -66z m-187 25 c0 -4 -2 -8 -4 -8 -2 0 -11 -3 -19 -6 -10 -3
-25 12 -46 46 -17 27 -31 53 -31 56 0 3 23 -14 50 -37 28 -23 50 -46 50 -51z
m-356 0 c7 -32 0 -35 -25 -12 -14 13 -16 21 -8 36 12 23 24 15 33 -24z m1006
5 c0 -26 -1 -26 -17 -10 -16 16 -16 19 -3 27 20 13 20 13 20 -17z m-129 -45
c-12 -18 -31 -50 -43 -70 -12 -21 -26 -38 -30 -38 -5 0 -27 9 -49 21 -35 18
-40 24 -37 51 2 18 9 32 18 34 40 6 78 15 105 23 54 17 59 14 36 -21z m-374
-12 c80 -27 83 -29 139 -102 57 -74 57 -75 63 -157 9 -144 3 -350 -15 -437 -1
-8 -3 -29 -3 -47 -1 -28 -9 -37 -81 -83 -64 -40 -92 -52 -134 -56 l-53 -6 -45
114 -45 113 -2 239 -1 240 36 109 c22 66 41 107 48 104 6 -2 48 -16 93 -31z
m463 -2 c11 -21 17 -40 13 -45 -4 -4 -34 -16 -65 -26 l-57 -20 11 21 c22 43
63 106 70 106 3 0 16 -16 28 -36z m-947 -41 c-1 -5 -11 -28 -21 -52 l-20 -45
-7 40 c-3 21 -8 54 -11 73 l-5 34 33 -22 c18 -11 32 -24 31 -28z m318 10 c-10
-17 -10 -16 -11 3 0 23 13 41 18 25 2 -6 -1 -18 -7 -28z m346 10 c3 -7 -4 -9
-16 -6 -12 3 -18 9 -15 15 7 11 26 6 31 -9z m-386 -26 c-1 -4 -1 -26 -1 -49
l0 -43 -32 32 -32 32 25 20 c23 20 41 23 40 8z m-151 -29 l25 -10 -45 -39 -45
-39 -7 38 c-13 68 -11 73 20 66 15 -4 38 -11 52 -16z m540 -9 c0 -6 -4 -7 -10
-4 -5 3 -10 11 -10 16 0 6 5 7 10 4 6 -3 10 -11 10 -16z m370 0 c0 -10 -65
-79 -75 -79 -3 0 5 20 17 45 14 29 29 45 40 45 10 0 18 -5 18 -11z m-80 -4 c0
-2 -17 -36 -37 -74 l-38 -70 -33 52 -32 52 62 22 c68 23 78 26 78 18z m-935
-52 c6 -42 5 -43 -23 -43 l-30 0 21 45 c11 24 22 44 23 42 1 -1 5 -21 9 -44z
m719 15 c-10 -16 -34 -7 -34 12 0 17 3 19 19 8 11 -7 17 -16 15 -20z m-561
-97 c-4 -6 -93 30 -92 37 0 4 19 22 42 41 l42 34 5 -54 c3 -30 4 -56 3 -58z
m65 76 l22 -23 -23 -22 c-29 -27 -37 -20 -37 30 0 44 8 47 38 15z m820 -48 c2
-40 4 -75 5 -79 4 -14 -7 -14 -82 -1 l-73 13 68 69 c38 38 71 69 74 69 3 0 7
-32 8 -71z m-298 26 c0 -9 -6 -12 -15 -9 -8 4 -12 10 -9 15 8 14 24 10 24 -6z
m55 -25 c16 -30 15 -30 -5 -18 -11 7 -20 21 -20 30 0 26 7 22 25 -12z m-70
-20 c3 -5 1 -10 -4 -10 -6 0 -11 5 -11 10 0 6 2 10 4 10 3 0 8 -4 11 -10z
m-475 -57 l0 -58 -25 30 c-29 36 -30 43 -8 67 26 29 33 21 33 -39z m-154 14
c2 -2 -28 -13 -67 -26 -39 -12 -73 -21 -75 -18 -3 2 -7 20 -11 40 l-5 34 77
-13 c43 -7 79 -15 81 -17z m715 -30 c-15 -16 -22 -17 -41 -7 -13 7 -19 17 -16
27 3 8 6 19 6 24 0 5 16 1 35 -8 35 -17 35 -17 16 -36z m-101 -14 c0 -12 -4
-25 -10 -28 -6 -4 -10 11 -10 37 0 31 3 39 10 28 5 -8 10 -25 10 -37z m-795 7
c3 -5 1 -10 -4 -10 -6 0 -11 5 -11 10 0 6 2 10 4 10 3 0 8 -4 11 -10z m209 -2
c-4 -7 -19 -29 -33 -48 -14 -19 -26 -37 -27 -38 -2 -2 -22 8 -45 22 -29 17
-38 27 -29 30 51 19 126 45 133 45 5 1 5 -5 1 -11z m81 -28 c15 -22 26 -42 24
-44 -2 -2 -32 -7 -67 -11 l-64 -7 34 51 c18 28 36 51 39 51 4 0 19 -18 34 -40z
m793 -2 c-21 -13 -44 -9 -62 11 -16 18 -15 18 29 8 30 -7 41 -13 33 -19z
m-140 -13 c-9 -9 -30 14 -23 25 6 9 10 8 17 -4 6 -10 8 -19 6 -21z m-88 6 c-1
-7 -50 -44 -50 -37 0 20 25 54 36 49 8 -3 14 -8 14 -12z m-857 -31 c-3 -11 -9
-18 -13 -15 -7 4 -7 18 -1 43 1 2 5 1 10 -2 5 -3 7 -15 4 -26z m1007 9 c0 -6
-4 -7 -10 -4 -5 3 -10 11 -10 16 0 6 5 7 10 4 6 -3 10 -11 10 -16z m104 -13
c-7 -18 -25 -17 -31 1 -2 6 4 13 14 15 23 5 25 4 17 -16z m-1046 -69 c-27 -16
-52 -27 -54 -24 -2 2 1 27 7 54 l12 51 43 -26 43 -26 -51 -29z m846 77 c27
-10 18 -21 -26 -32 -52 -13 -58 -9 -27 17 27 23 31 24 53 15z m-576 -92 l-3
-41 -63 35 c-35 20 -62 37 -60 39 2 2 26 7 53 10 28 4 52 9 54 11 12 11 22
-18 19 -54z m799 21 c-3 -10 -5 -4 -5 12 0 17 2 24 5 18 2 -7 2 -21 0 -30z
m-118 -73 c22 -50 41 -95 41 -99 0 -8 -35 -14 -145 -27 l-40 -5 -23 57 c-13
31 -21 58 -19 61 15 14 133 103 138 103 3 0 25 -41 48 -90z m71 64 c0 -18 -4
-18 -24 5 -17 19 -17 19 3 14 12 -3 21 -12 21 -19z m-220 -5 c-40 -31 -60 -41
-61 -29 -5 29 -2 33 20 37 14 2 27 6 30 8 2 3 11 5 20 5 12 0 9 -6 -9 -21z
m-717 -71 l7 -48 -58 26 c-31 14 -61 29 -65 33 -5 5 15 22 45 38 60 32 61 32
71 -49z m87 42 c48 -24 83 -50 68 -50 -2 0 -28 -9 -57 -20 -30 -11 -57 -18
-60 -15 -4 2 -8 21 -9 42 -2 21 -5 46 -8 56 -7 23 -3 22 66 -13z m836 -27 c13
-52 -2 -56 -23 -6 -21 51 -21 52 -2 40 11 -7 22 -22 25 -34z m64 -38 c0 -1 -7
-8 -15 -15 -13 -10 -15 -9 -15 8 0 15 5 20 15 16 8 -4 15 -7 15 -9z m-1053
-30 l62 -27 -61 -79 c-38 -50 -68 -79 -80 -79 -19 0 -20 30 -9 209 1 7 7 11
14 8 6 -3 40 -17 74 -32z m253 -20 c0 -52 -4 -53 -75 -21 l-49 22 54 21 c30
11 58 21 63 22 4 0 7 -19 7 -44z m480 2 c0 -6 -9 -2 -20 8 -11 10 -17 22 -13
28 6 10 33 -19 33 -36z m323 -34 c-1 -21 -2 -45 -3 -53 0 -8 -9 1 -20 20 -17
32 -17 37 -3 53 23 25 28 21 26 -20z m-878 -21 l66 -29 -57 -66 c-31 -37 -62
-67 -69 -67 -6 0 -26 5 -42 10 l-30 11 25 84 c14 47 29 85 33 85 4 0 37 -13
74 -28z m575 -16 c0 -1 -16 -18 -36 -37 l-36 -34 6 50 c2 28 5 54 5 58 1 7 61
-30 61 -37z m231 -31 c3 -46 2 -47 -84 -8 -31 15 -54 30 -50 34 5 4 30 10 58
14 27 3 52 8 54 11 10 9 19 -13 22 -51z m-954 -43 c-8 -29 -16 -42 -29 -42
-10 0 -18 3 -18 7 0 9 52 84 56 81 1 -2 -3 -22 -9 -46z m1013 18 c7 -13 6 -19
-4 -23 -9 -4 -15 4 -18 23 -5 31 5 31 22 0z m-204 -76 c31 -52 54 -96 52 -97
-21 -13 -101 -47 -103 -45 -6 6 -91 123 -99 135 -7 13 68 103 85 103 5 0 34
-43 65 -96z m101 41 l42 -20 -27 -42 c-15 -24 -29 -43 -32 -43 -5 0 -26 32
-79 123 l-23 38 38 -18 c21 -10 58 -27 81 -38z m-679 -45 c1 -44 0 -80 -3 -80
-13 0 -94 46 -95 53 0 10 81 107 89 107 3 0 7 -36 9 -80z m779 8 c-3 -8 -6 -5
-6 6 -1 11 2 17 5 13 3 -3 4 -12 1 -19z m-723 -38 c21 -52 20 -65 -3 -67 -16
-1 -20 6 -23 53 -1 30 0 54 3 54 4 0 14 -18 23 -40z m-336 24 c22 -6 28 -27
16 -58 -5 -12 -11 -10 -30 13 -37 44 -33 57 14 45z m1037 -43 c4 -18 0 -42
-11 -65 l-18 -36 -23 26 c-13 15 -23 29 -23 31 0 12 54 82 60 78 5 -3 11 -18
15 -34z m-935 9 c0 -7 -44 -40 -54 -40 -3 0 -3 7 -1 15 3 8 7 21 9 29 5 15 46
11 46 -4z m628 -44 l32 -45 -27 8 c-47 14 -103 40 -103 47 0 4 10 18 22 31 25
26 30 24 76 -41z m-738 -33 c0 -5 -16 -25 -37 -44 -20 -18 -34 -29 -31 -24 3
6 11 36 18 68 l12 58 19 -25 c10 -13 19 -28 19 -33z m177 -96 c-1 -5 -28 13
-60 39 -32 26 -56 49 -54 51 3 2 22 17 43 33 l39 29 17 -72 c10 -40 16 -76 15
-80z m66 118 c20 -10 37 -21 37 -24 0 -3 -14 -28 -30 -56 -31 -53 -31 -53 -49
27 -13 55 -14 81 -3 76 4 -2 24 -12 45 -23z m263 -33 c-3 -6 -16 -7 -29 -4
-22 6 -22 6 3 12 28 8 35 6 26 -8z m207 -14 c73 -26 93 -37 112 -66 27 -40 30
-32 -50 -130 -27 -33 -55 -63 -62 -66 -10 -4 -100 96 -126 141 -7 12 23 153
32 153 3 0 45 -14 94 -32z m-373 9 c0 -2 -12 -14 -26 -28 l-26 -24 13 28 c7
15 18 27 26 27 7 0 13 -1 13 -3z m230 -24 c-5 -16 -10 -35 -12 -43 -3 -10 -10
-7 -23 13 -17 27 -17 28 1 42 31 24 44 19 34 -12z m317 -22 l-24 -41 -12 26
c-6 15 -10 28 -9 29 9 8 63 33 66 31 1 -2 -8 -22 -21 -45z m91 21 c13 -20 12
-22 -24 -37 -20 -8 -39 -14 -41 -11 -7 7 31 76 41 73 5 -2 16 -13 24 -25z
m-498 -20 c0 -10 3 -41 6 -69 7 -56 -2 -66 -29 -35 -15 16 -36 88 -37 124 0
15 4 15 30 7 17 -6 30 -18 30 -27z m-360 -37 c27 -22 49 -43 50 -47 0 -5 -15
-8 -32 -9 -18 0 -41 -2 -50 -4 -10 -2 -18 2 -18 8 -1 7 -5 31 -9 55 -10 51 -6
50 59 -3z m274 -44 c-5 -4 -21 -5 -36 -2 l-26 6 26 45 27 45 9 -43 c5 -26 5
-46 0 -51z m-363 47 c1 -13 2 -34 3 -47 1 -19 -7 -28 -41 -42 l-42 -18 32 65
c33 67 46 79 48 42z m275 -23 c-9 -14 -24 -25 -33 -25 -13 0 -10 7 12 30 33
35 45 32 21 -5z m-358 -10 c-6 -14 -15 -25 -20 -25 -9 0 -4 14 15 38 15 19 18
14 5 -13z m1001 -2 c-37 -49 -42 -54 -51 -41 -13 22 -9 28 25 43 41 18 42 18
26 -2z m-417 -25 c-9 -9 -12 -7 -12 12 0 19 3 21 12 12 9 -9 9 -15 0 -24z
m-372 -83 c-12 -30 -26 -55 -30 -55 -5 0 -14 17 -21 38 -6 20 -16 42 -21 49
-7 9 -3 14 14 17 33 8 72 12 77 9 2 -1 -6 -27 -19 -58z m129 18 c2 -54 1 -54
-28 5 l-21 42 23 0 c21 0 24 -5 26 -47z m101 39 c0 -6 -61 -102 -64 -102 -2 0
-4 25 -5 55 l-1 54 35 -1 c19 -1 35 -3 35 -6z m221 -53 l32 -41 -52 26 c-46
24 -50 29 -41 47 13 24 19 21 61 -32z m257 14 c-15 -18 -21 -9 -13 18 6 16 9
18 16 8 4 -8 3 -19 -3 -26z m-598 -113 c-7 -5 -50 -5 -107 -1 -7 1 -5 15 8 41
11 22 24 53 30 68 11 27 11 27 44 -38 18 -36 29 -67 25 -70z m143 63 c-39 -31
-46 -29 -27 10 28 55 37 62 47 35 7 -19 3 -27 -20 -45z m-340 15 c8 -24 18
-51 22 -60 6 -16 0 -18 -70 -18 l-77 0 52 60 c29 33 53 60 55 60 2 0 10 -19
18 -42z m-92 14 c-5 -9 -19 -26 -30 -36 -21 -19 -21 -19 -21 6 0 16 8 29 23
36 32 16 39 14 28 -6z m824 -11 c-3 -6 -11 -11 -16 -11 -5 0 -4 6 3 14 14 16
24 13 13 -3z m-216 -35 l44 -23 -33 -6 c-62 -13 -80 -9 -80 16 0 43 9 45 69
13z m-129 -10 c0 -2 3 -11 6 -20 5 -13 -2 -16 -42 -16 l-49 0 30 19 c28 18 55
26 55 17z"/>
<path d="M38 2702 c-10 -2 -19 -13 -19 -25 -1 -12 -3 -33 -6 -47 -12 -78 -4
-292 12 -308 3 -3 88 -6 188 -6 l183 -1 4 -100 c4 -109 5 -700 1 -940 -2 -141
1 -191 13 -203 9 -8 247 -7 326 2 41 4 78 13 82 19 7 11 5 75 -7 282 -10 157
-10 155 0 280 4 55 7 226 6 380 l-2 280 186 -1 c102 -1 187 2 189 5 2 3 7 78
11 166 4 88 7 162 7 165 0 3 0 16 -1 29 l-1 24 -92 -8 c-110 -10 -122 -10
-388 0 -230 8 -666 13 -692 7z m289 -53 c-13 -21 -35 -24 -89 -9 -61 17 -52
27 27 27 70 1 73 0 62 -18z m248 11 c6 0 -19 -10 -54 -21 l-64 -21 -24 25 -25
24 79 -2 c43 -2 83 -4 88 -5z m-357 -45 c2 -2 -14 -13 -37 -24 l-40 -21 -30
44 -31 44 68 -20 c37 -11 69 -22 70 -23z m177 25 c18 -20 17 -20 -14 -20 -29
0 -31 2 -21 20 6 11 12 20 14 20 2 0 11 -9 21 -20z m509 11 l50 -1 -30 -31
c-16 -17 -42 -40 -58 -52 l-29 -20 -43 49 c-24 27 -44 52 -44 56 0 3 24 5 53
3 28 -2 74 -4 101 -4z m246 3 c0 -10 -90 -163 -99 -168 -4 -3 -8 5 -9 17 -1
12 -5 50 -10 84 -9 62 -8 62 17 65 63 7 101 8 101 2z m-480 -9 c0 -3 -10 -44
-21 -90 -14 -56 -25 -82 -33 -78 -29 18 -125 107 -120 112 5 6 152 59 167 60
4 1 7 -1 7 -4z m-586 -45 c14 -22 26 -41 26 -44 0 -4 -57 -26 -67 -26 -2 0 -2
12 1 28 2 15 5 39 5 55 1 15 3 27 5 27 2 0 15 -18 30 -40z m680 -16 c27 -30
47 -57 45 -59 -6 -5 -131 -55 -139 -55 -7 0 33 170 41 170 3 0 27 -25 53 -56z
m231 15 c14 -81 21 -139 18 -143 -3 -3 -36 12 -74 32 l-69 36 57 52 c32 29 59
51 61 49 2 -1 5 -13 7 -26z m-612 -11 c21 -1 37 -4 37 -6 0 -7 -64 -82 -70
-82 -3 0 -13 15 -22 33 -11 23 -12 36 -5 49 6 9 14 15 17 13 4 -2 23 -5 43 -7z
m784 -99 c-3 -61 -7 -112 -9 -115 -3 -2 -25 9 -51 25 l-46 30 51 85 c28 47 53
86 56 86 2 0 2 -50 -1 -111z m-927 84 c0 -5 -6 -30 -13 -57 l-13 -50 -21 30
c-31 43 -31 52 -3 68 28 16 50 20 50 9z m301 -72 l68 -59 -75 -32 c-42 -17
-81 -33 -88 -36 -11 -4 -11 8 -2 63 7 37 13 71 14 76 1 4 2 16 2 27 0 11 3 20
6 20 3 0 37 -27 75 -59z m-394 7 c35 -39 47 -69 32 -79 -8 -5 -20 -9 -26 -9
-13 0 -101 61 -102 71 -1 5 57 37 70 38 3 1 15 -9 26 -21z m183 -38 c-1 -3
-10 -16 -21 -29 -17 -21 -23 -22 -44 -13 l-25 11 27 45 27 45 18 -27 c10 -15
18 -29 18 -32z m85 8 c-8 -65 -21 -81 -35 -43 -9 23 -7 33 12 61 13 19 24 34
26 34 2 0 0 -24 -3 -52z m391 -42 c-6 -30 -14 -58 -18 -62 -4 -3 -30 8 -58 26
-28 18 -48 36 -43 40 7 7 111 48 124 49 3 1 1 -23 -5 -53z m97 6 l36 -37 -60
-22 c-54 -20 -60 -20 -55 -5 2 9 8 36 11 60 4 23 12 42 19 42 6 0 28 -17 49
-38z m-793 -42 c0 -7 -51 -33 -55 -28 -6 8 -13 66 -8 71 6 6 63 -33 63 -43z
m875 22 c-3 -3 -11 0 -18 7 -9 10 -8 11 6 5 10 -3 15 -9 12 -12z m-625 -11
c15 -29 13 -32 -14 -20 -14 7 -22 17 -19 25 7 20 21 17 33 -5z m-150 -22 c0
-18 -2 -20 -15 -9 -13 11 -13 15 -3 21 18 12 18 12 18 -12z m406 13 c-2 -4 -7
-25 -11 -47 -3 -22 -11 -66 -18 -99 l-12 -58 -63 63 c-34 35 -62 69 -62 74 0
6 35 24 78 42 83 34 96 37 88 25z m152 -67 c3 -3 -146 -125 -153 -125 -5 0 -2
25 16 120 16 86 13 84 76 44 32 -20 59 -38 61 -39z m-498 61 c0 -2 -7 -9 -15
-16 -12 -10 -15 -10 -15 4 0 9 7 16 15 16 8 0 15 -2 15 -4z m-110 -31 c11 -13
9 -15 -11 -11 -13 3 -28 5 -34 6 -5 1 -1 5 10 10 11 5 21 9 21 9 1 1 7 -6 14
-14z m154 9 c24 -9 19 -19 -9 -22 -18 -1 -23 2 -19 13 7 17 7 17 28 9z m681
-10 c18 -13 16 -14 -34 -13 -49 2 -51 3 -29 15 30 17 39 17 63 -2z m100 2 c18
-13 18 -13 -5 -12 -13 0 -25 7 -28 14 -5 16 10 15 33 -2z m-545 -197 c0 -7
-100 -62 -105 -57 -2 1 -5 43 -8 92 l-5 88 59 -58 c33 -32 59 -61 59 -65z
m195 45 l-20 -66 -39 7 c-69 11 -71 17 -14 60 29 22 59 46 66 52 26 25 28 12
7 -53z m31 -82 c-12 -11 -17 7 -9 34 l8 29 3 -28 c2 -16 1 -31 -2 -35z m-240
-31 c-12 -23 -20 -27 -41 -23 -27 5 -27 5 12 27 21 13 39 24 41 24 1 1 -4 -12
-12 -28z m114 -42 c8 -14 4 -15 -38 -6 -26 6 -49 12 -51 13 -2 2 2 17 9 34
l13 31 29 -28 c16 -15 34 -35 38 -44z m53 51 c10 -9 0 -50 -11 -49 -4 0 -20
16 -37 36 l-29 36 34 -8 c19 -4 39 -11 43 -15z m57 -14 c0 -3 -4 -8 -10 -11
-5 -3 -10 -1 -10 4 0 6 5 11 10 11 6 0 10 -2 10 -4z m-276 -46 c26 -9 26 -10
9 -45 -18 -38 -26 -34 -38 23 -7 36 -7 36 29 22z m301 -75 c0 -47 -2 -85 -5
-85 -7 0 -50 102 -50 118 0 12 38 51 50 52 3 0 5 -38 5 -85z m-152 34 c-4 -4
-36 -19 -70 -32 -57 -23 -62 -24 -53 -7 6 10 14 30 19 43 9 23 11 24 61 14 28
-5 47 -13 43 -18z m106 -108 c23 -52 41 -99 40 -105 0 -12 -113 -96 -128 -96
-11 0 -154 210 -148 217 6 6 191 82 194 80 0 -1 20 -44 42 -96z m-165 -169
c-1 -2 -19 8 -40 22 -32 22 -38 32 -41 68 l-4 43 44 -65 c24 -36 43 -67 41
-68z m202 -59 c-3 -43 -5 -86 -5 -96 -1 -15 -7 -12 -33 15 -78 81 -76 71 -16
117 29 22 55 40 56 40 2 1 1 -34 -2 -76z m-168 1 c6 -4 -84 -54 -96 -54 -8 0
-12 21 -12 60 l0 60 53 -32 c28 -17 53 -33 55 -34z m-149 -98 c-5 -6 -9 7 -8
35 l1 44 8 -35 c5 -20 5 -39 -1 -44z m150 34 c-11 -31 -20 -34 -54 -21 -18 7
-15 10 20 29 22 12 41 21 42 22 1 0 -3 -13 -8 -30z m106 -39 l20 -24 -20 6
c-11 4 -33 8 -49 11 -36 6 -35 5 -24 44 l9 32 22 -23 c12 -13 31 -33 42 -46z
m-149 -19 c21 -7 21 -8 6 -57 l-15 -50 -13 31 c-33 80 -30 92 22 76z m125 -28
c21 -4 39 -9 39 -13 0 -3 -31 -25 -70 -48 -38 -23 -70 -40 -70 -37 0 3 7 31
16 61 12 41 20 53 31 49 8 -3 32 -9 54 -12z m-188 -54 c-7 -8 -22 24 -16 34 4
5 10 1 13 -10 4 -10 6 -21 3 -24z m225 -64 c-12 -36 -25 -66 -29 -66 -4 0 -30
11 -58 24 l-52 24 78 45 c43 25 79 45 80 43 2 -2 -7 -33 -19 -70z m-235 -51
c-43 -38 -57 -43 -49 -17 3 9 11 39 17 66 l12 49 29 -32 29 -33 -38 -33z m286
0 c1 -34 -2 -45 -13 -45 -24 0 -27 15 -14 64 14 52 23 46 27 -19z m-91 -58 c6
-28 -13 -24 -41 9 l-29 34 34 -14 c18 -8 34 -21 36 -29z m-211 -47 c-17 -38
-33 -67 -36 -64 -3 3 -6 21 -6 40 -1 28 5 41 32 65 19 16 35 29 38 29 2 0 -11
-31 -28 -70z m213 -50 c0 -9 -79 -84 -84 -79 -2 2 -7 33 -11 69 -3 36 -8 81
-11 100 l-4 35 55 -59 c30 -33 55 -62 55 -66z m-136 45 c4 -33 9 -80 12 -103
l6 -44 -56 4 c-31 1 -57 7 -58 11 -1 9 84 199 87 195 2 -2 6 -30 9 -63z m191
35 c-3 -5 -10 -10 -16 -10 -5 0 -9 5 -9 10 0 6 7 10 16 10 8 0 12 -4 9 -10z
m43 -90 c-1 -35 -8 -38 -26 -9 -10 16 -10 24 -1 35 16 20 28 9 27 -26z m-42
-45 c9 -14 15 -27 13 -29 -2 -2 -28 -6 -58 -9 l-54 -6 33 34 c19 19 37 35 42
35 4 0 15 -11 24 -25z"/>
<path d="M2875 2652 l-120 -53 -92 -137 c-62 -94 -93 -150 -97 -177 -4 -22
-13 -80 -22 -128 -16 -93 -18 -277 -4 -382 5 -33 11 -94 15 -135 8 -98 58
-283 85 -318 12 -15 48 -57 81 -93 54 -60 69 -70 168 -113 l109 -46 166 5 167
5 138 76 c136 75 138 77 189 153 47 70 102 200 102 242 0 17 -17 24 -150 59
-39 11 -149 9 -235 -4 -12 -1 -40 -31 -68 -72 -51 -73 -57 -76 -132 -63 -22 4
-63 10 -92 13 -74 9 -76 10 -100 79 -34 98 -49 304 -31 437 5 41 11 86 12 100
2 14 4 39 5 55 1 24 18 49 74 108 l72 76 70 -15 c38 -8 72 -18 75 -23 3 -4 25
-38 48 -74 24 -36 51 -68 60 -71 44 -13 388 9 398 26 3 5 -11 58 -31 119 -33
100 -42 117 -94 172 -149 161 -138 152 -256 193 -106 36 -115 37 -250 38
l-141 2 -119 -54z m304 -4 c-27 -23 -37 -22 -74 2 l-29 19 62 -2 c62 -2 63 -2
41 -19z m-186 -60 l5 -66 -90 30 -89 30 28 15 c36 19 137 62 140 59 1 -1 4
-31 6 -68z m96 36 c26 -13 30 -19 20 -30 -18 -21 -32 -17 -51 16 -19 34 -14
37 31 14z m125 -8 c-6 -16 -24 -23 -24 -8 0 10 22 33 27 28 2 -2 1 -11 -3 -20z
m76 -53 c0 -8 -9 -7 -29 4 -26 16 -28 20 -18 46 l10 30 18 -34 c10 -19 18 -39
19 -46z m104 58 l50 -17 -24 -17 c-33 -23 -40 -21 -73 19 -33 38 -25 41 47 15z
m-348 -73 c-14 -9 -17 -6 -22 34 l-5 33 19 -30 c13 -20 15 -32 8 -37z m146 3
c-8 -22 -22 -31 -54 -31 -39 0 -45 19 -12 45 23 18 33 21 50 13 15 -7 20 -16
16 -27z m158 -3 c0 -18 -17 -7 -29 19 -13 28 -13 28 8 9 12 -11 21 -23 21 -28z
m-445 -26 c44 -14 81 -27 83 -28 4 -2 -27 -65 -75 -152 -20 -35 -37 -62 -39
-60 -2 3 -20 61 -81 262 -4 15 -2 18 13 12 11 -4 55 -19 99 -34z m570 6 c-2
-18 -3 -39 -4 -47 -1 -11 -7 -8 -22 8 l-21 22 23 25 c12 13 23 24 24 24 1 0 1
-15 0 -32z m152 -104 c-3 -3 -32 -2 -65 2 l-60 6 1 65 2 64 63 -66 c35 -37 62
-69 59 -71z m-377 116 c12 -8 11 -10 -7 -10 -13 0 -23 5 -23 10 0 13 11 13 30
0z m-422 -219 l20 -69 -27 8 c-14 5 -65 22 -114 38 l-87 29 72 108 72 107 22
-76 c13 -41 32 -107 42 -145z m557 189 c3 -5 2 -10 -4 -10 -5 0 -13 5 -16 10
-3 6 -2 10 4 10 5 0 13 -4 16 -10z m-194 -37 c8 -22 7 -30 -6 -40 -20 -14 -65
2 -65 24 0 7 -1 16 -2 20 -2 4 11 11 27 14 17 4 31 7 33 8 1 0 7 -11 13 -26z
m65 12 c-22 -17 -36 -19 -36 -7 0 14 12 22 34 22 21 -1 21 -1 2 -15z m62 -31
c2 -23 -33 -84 -49 -84 -4 0 -12 15 -18 33 -11 30 -10 34 16 54 36 30 48 29
51 -3z m-238 -86 c0 -7 -72 -48 -83 -48 -2 0 3 32 11 70 l15 70 29 -42 c15
-24 28 -46 28 -50z m360 53 c0 -12 -73 -32 -83 -22 -5 5 -2 20 8 35 16 24 18
25 46 10 16 -8 29 -18 29 -23z m-216 -27 c4 -10 1 -14 -6 -12 -15 5 -23 28
-10 28 5 0 13 -7 16 -16z m389 -3 c41 -1 45 -9 20 -40 l-18 -21 -40 34 c-28
25 -34 34 -20 31 11 -2 37 -4 58 -4z m-193 -75 c-35 -73 -50 -83 -50 -33 0 17
-3 41 -6 52 -4 17 3 23 38 36 24 8 45 14 47 13 2 -2 -11 -32 -29 -68z m-451
22 c-8 -35 -37 -74 -47 -63 -4 4 47 105 52 105 2 0 0 -19 -5 -42z m206 32 c3
-6 -1 -7 -9 -4 -18 7 -21 14 -7 14 6 0 13 -4 16 -10z m315 -25 c0 -19 -1 -15
16 -77 21 -80 22 -78 -51 -78 l-65 0 42 85 c41 81 58 102 58 70z m75 -17 l36
-33 -28 -39 -28 -38 -11 54 c-6 30 -13 62 -17 71 -10 27 10 20 48 -15z m138
-67 c-2 -3 -16 7 -30 22 -25 24 -26 28 -13 53 l14 26 17 -49 c9 -26 15 -50 12
-52z m-365 28 l3 -44 -25 40 c-17 28 -21 42 -13 47 22 14 31 2 35 -43z m-521
-63 c3 -3 -21 -17 -54 -31 -77 -36 -144 -65 -149 -65 -2 0 -4 38 -4 84 l0 85
102 -35 c55 -18 103 -36 105 -38z m860 10 c13 -11 23 -22 23 -26 0 -4 -23 -7
-52 -9 -28 -1 -55 -4 -60 -7 -15 -10 -8 16 14 50 24 37 21 37 75 -8z m-732 -5
c-3 -6 -11 -8 -17 -5 -6 4 -5 9 3 15 16 10 23 4 14 -10z m-11 -46 c-1 -6 -5
-39 -8 -75 -8 -69 -16 -91 -17 -44 0 28 -3 49 -14 107 -4 25 -2 28 18 25 12
-2 21 -8 21 -13z m-69 -26 c2 -13 6 -46 10 -74 3 -27 8 -63 11 -80 2 -16 6
-46 9 -67 l4 -36 -102 40 c-56 22 -114 45 -129 50 -16 5 -28 12 -28 15 0 6 16
20 80 73 30 25 57 47 60 50 19 20 73 60 77 57 2 -3 6 -15 8 -28z m-105 -4 c0
-5 -135 -115 -143 -115 -6 0 -2 48 4 54 3 3 126 61 137 65 1 1 2 -1 2 -4z
m-183 -167 c-3 -7 -5 -2 -5 12 0 14 2 19 5 13 2 -7 2 -19 0 -25z m169 -59 c71
-27 133 -54 137 -58 8 -8 -52 -141 -63 -141 -5 0 -233 170 -248 185 -5 5 31
65 38 65 4 0 65 -23 136 -51z m-48 -149 l101 -75 -96 -48 c-53 -27 -99 -45
-103 -40 -5 4 -11 37 -14 73 -3 36 -9 91 -12 124 -8 69 -18 72 124 -34z m217
-52 c3 -38 3 -68 -2 -68 -4 1 -20 11 -36 23 l-27 23 18 34 c23 46 33 62 37 58
1 -2 6 -33 10 -70z m-17 -150 l74 -100 -49 -71 c-26 -38 -51 -74 -54 -80 -6
-9 -196 29 -211 42 -7 7 -61 202 -56 205 2 0 50 24 108 53 58 28 107 52 110
52 3 0 38 -45 78 -101z m552 -8 c0 -10 -32 -30 -49 -30 -6 0 -11 6 -11 14 0
13 9 17 53 25 4 0 7 -3 7 -9z m234 -20 c17 -6 16 -9 -13 -29 -18 -13 -33 -22
-35 -20 -16 25 -36 60 -36 64 0 7 50 -2 84 -15z m-186 -12 c-8 -13 -25 -40
-38 -62 l-23 -38 -13 23 c-21 37 -17 44 34 72 57 32 58 32 40 5z m-128 -13 c0
-8 -2 -15 -4 -15 -2 0 -12 -3 -21 -6 -15 -6 -15 -4 -4 15 16 25 29 27 29 6z
m170 -39 c0 -53 -1 -55 -31 -61 -17 -4 -33 -5 -35 -2 -5 5 54 117 62 117 2 0
4 -24 4 -54z m55 24 c19 -37 19 -37 -5 -50 -19 -10 -20 -8 -20 35 0 25 2 45 5
45 2 0 11 -13 20 -30z m104 -40 c-11 -31 -24 -39 -32 -17 -5 12 20 47 34 47 4
0 3 -13 -2 -30z m-305 -16 c9 -36 4 -38 -46 -22 l-43 15 30 16 c42 23 52 21
59 -9z m-235 -19 c9 -2 21 -4 26 -5 6 0 -14 -12 -44 -26 -30 -14 -59 -23 -65
-21 -6 3 -19 19 -29 36 l-19 32 58 -7 c32 -3 65 -8 73 -9z m-129 -46 c7 -16
11 -31 9 -33 -21 -16 -129 -76 -138 -76 -17 0 -13 18 12 53 78 107 79 108 92
97 7 -6 18 -24 25 -41z m625 27 c15 -23 15 -27 -15 -68 -17 -24 -34 -43 -38
-43 -4 0 -12 22 -17 50 -10 45 -9 52 9 67 29 24 43 22 61 -6z m-402 -10 c4
-10 -4 -15 -29 -18 -19 -2 -34 -3 -34 -1 0 2 50 31 56 33 1 0 4 -6 7 -14z m77
-2 c0 -2 -12 -4 -26 -4 -14 0 -23 4 -20 9 6 8 46 4 46 -5z m227 -59 c6 -25 7
-45 4 -45 -3 1 -25 18 -49 39 -44 40 -42 49 9 50 22 1 27 -5 36 -44z m-14
-102 c-18 -14 -196 -112 -209 -116 -4 -1 -8 7 -10 18 -6 48 -26 181 -29 197
-4 20 5 24 70 27 28 2 52 5 54 7 2 2 35 -24 73 -58 65 -58 69 -63 51 -75z
m-279 99 c6 -24 15 -77 22 -137 3 -27 8 -54 11 -60 2 -5 -38 35 -90 90 -53 55
-94 101 -92 103 3 3 82 16 122 20 13 1 24 -5 27 -16z m-434 -52 c6 -7 -33 -70
-42 -70 -8 0 -61 56 -85 90 -11 16 -8 16 56 1 37 -9 69 -18 71 -21z m351 -72
c53 -57 96 -104 95 -105 -1 -1 -59 -4 -130 -6 -91 -3 -126 -1 -123 7 2 6 15
55 28 109 12 53 25 97 28 97 3 0 49 -46 102 -102z m-141 86 c0 -9 -41 -169
-45 -172 -1 -2 -19 23 -38 54 l-36 57 52 33 c51 33 67 40 67 28z m-93 -171
c-3 -2 -31 9 -62 25 l-57 29 33 21 34 21 28 -46 c16 -25 26 -47 24 -50z"/>
</g>
</svg>
